<?xml version="1.0" encoding="UTF-8" standalone="no"?>
<!-- Created with Inkscape (http://www.inkscape.org/) -->
<svg
   xmlns:dc="http://purl.org/dc/elements/1.1/"
   xmlns:cc="http://creativecommons.org/ns#"
   xmlns:rdf="http://www.w3.org/1999/02/22-rdf-syntax-ns#"
   xmlns:svg="http://www.w3.org/2000/svg"
   xmlns="http://www.w3.org/2000/svg"
   xmlns:sodipodi="http://sodipodi.sourceforge.net/DTD/sodipodi-0.dtd"
   xmlns:inkscape="http://www.inkscape.org/namespaces/inkscape"
   width="1418.4286"
   height="1224.5294"
   id="svg2"
   sodipodi:version="0.32"
   inkscape:version="0.46"
   version="1.0"
   sodipodi:docname="duck.svg"
   inkscape:output_extension="org.inkscape.output.svg.inkscape">
  <defs
     id="defs4">
    <inkscape:perspective
       sodipodi:type="inkscape:persp3d"
       inkscape:vp_x="0 : 526.18109 : 1"
       inkscape:vp_y="0 : 1000 : 0"
       inkscape:vp_z="744.09448 : 526.18109 : 1"
       inkscape:persp3d-origin="372.04724 : 350.78739 : 1"
       id="perspective10" />
    <inkscape:perspective
       id="perspective2464"
       inkscape:persp3d-origin="372.04724 : 350.78739 : 1"
       inkscape:vp_z="744.09448 : 526.18109 : 1"
       inkscape:vp_y="0 : 1000 : 0"
       inkscape:vp_x="0 : 526.18109 : 1"
       sodipodi:type="inkscape:persp3d" />
  </defs>
  <sodipodi:namedview
     id="base"
     pagecolor="#ffffff"
     bordercolor="#666666"
     borderopacity="1.0"
     gridtolerance="10000"
     guidetolerance="10"
     objecttolerance="10"
     inkscape:pageopacity="0.0"
     inkscape:pageshadow="2"
     inkscape:zoom="0.35"
     inkscape:cx="715.23122"
     inkscape:cy="560.47868"
     inkscape:document-units="px"
     inkscape:current-layer="layer1"
     showgrid="false"
     inkscape:window-width="1280"
     inkscape:window-height="746"
     inkscape:window-x="0"
     inkscape:window-y="32" />
  <metadata
     id="metadata7">
    <rdf:RDF>
      <cc:Work
         rdf:about="">
        <dc:format>image/svg+xml</dc:format>
        <dc:type
           rdf:resource="http://purl.org/dc/dcmitype/StillImage" />
      </cc:Work>
    </rdf:RDF>
  </metadata>
  <g
     inkscape:label="Layer 1"
     inkscape:groupmode="layer"
     id="layer1"
     transform="translate(169.21429,-54.576468)">
    <path
       style="fill:#0f1c0d;fill-opacity:1;fill-rule:evenodd;stroke:#000000;stroke-width:7;stroke-linecap:butt;stroke-linejoin:miter;stroke-miterlimit:4;stroke-dasharray:none;stroke-opacity:1"
       d="M 428.57143,1015.2193 L 448.57143,998.07647 L 468.57143,975.21933 L 525.71429,975.21933 L 582.85714,963.79075 L 657.14286,938.07647 L 722.85714,920.93361 L 782.85714,898.07647 L 842.85714,880.93361 L 900,866.6479 L 945.71429,852.36218 L 997.14286,829.50504 L 1017.1429,815.21933 L 1071.4286,818.07647 L 1114.2857,820.93361 L 1148.5714,812.36218 L 1182.8571,812.36218 L 1200,809.50504 L 1234.2857,800.93361 L 1242.8571,783.79075 L 1245.7143,763.79075 L 1245.7143,752.36218 L 1202.8571,740.93361 L 1142.8571,729.50504 L 1102.8571,718.07647 L 1080,720.93361 L 1034.2857,718.07647 L 980,695.21933 L 934.28571,675.21933 L 868.57143,652.36218 L 780,623.79075 L 680,598.07647 L 597.14286,569.50504 L 531.42857,543.79075 L 477.14286,529.50504 L 417.14286,506.6479 L 362.85714,489.50504 L 297.14286,478.07647 L 242.85714,478.07647 L 205.71429,458.07647 L 180,423.79075 L 174.28571,418.07647 L 194.28571,366.6479 L 205.71429,323.79075 L 214.28571,280.93361 L 217.14286,215.21933 L 211.42857,155.21933 L 188.57143,112.36218 L 165.71429,89.50504 L 120,66.647897 L 65.714286,58.076468 L 11.428571,63.790754 L -34.285714,78.076468 L -65.714286,109.50504 L -85.714286,158.07647 L -100,200.93361 L -128.57143,232.36218 L -160,260.93361 L -165.71429,278.07647 L -162.85714,283.79075 L -108.57143,272.36218 L -60,258.07647 L -37.142857,249.50504 L -8.5714286,255.21933 L 8.5714286,269.50504 L 14.285714,295.21933 L 17.142857,300.93361 L -5.7142857,335.21933 L -22.857143,366.6479 L -45.714286,412.36218 L -68.571429,455.21933 L -85.714286,506.6479 L -94.285714,563.79075 L -91.428571,623.79075 L -82.857143,678.07647 L -68.571429,723.79075 L -45.714286,783.79075 L -22.223356,813.96618 L 5.0507627,845.28091 L 34.345187,870.53472 L 67.680221,895.78854 L 100.0051,915.99159 L 141.42136,939.2251 L 174.75639,952.35708 L 214.15234,965.48906 L 250.51783,976.60074 L 283.85287,978.62105 L 312.13714,981.6515 L 341.43156,991.75303 L 343.45187,993.77333 L 323.24881,1026.0982 L 304.05592,1049.3317 L 269.71073,1044.281 L 251.52798,1034.1794 L 219.2031,1037.2099 L 200.01021,1049.3317 L 184.85791,1054.3824 L 169.70563,1061.4535 L 161.62441,1070.545 L 164.65486,1079.6363 L 169.70563,1087.7175 L 179.80716,1101.8597 L 189.90868,1116.0018 L 182.83761,1133.1744 L 173.74624,1155.3977 L 179.80715,1164.4891 L 191.92898,1160.4485 L 201.02036,1144.286 L 210.11173,1128.1237 L 212.13203,1123.0729 L 222.23356,1129.1338 L 230.31478,1132.1642 L 245.46707,1131.1541 L 255.5686,1140.2454 L 268.70058,1131.1541 L 272.74119,1119.0322 L 294.96454,1095.7987 L 308.09653,1095.7987 L 332.34019,1083.6769 L 354.56354,1055.3926 L 371.73614,1024.0779 L 377.79705,1005.8952 L 374.76659,988.72257 L 378.8072,1008.9256 L 383.85797,1015.9967 L 388.90873,1017.0068 L 385.87827,1059.4333 L 378.8072,1109.9409 L 371.73614,1116.0018 L 363.65492,1126.1033 L 349.51278,1127.1135 L 335.37065,1119.0323 L 313.14729,1101.8597 L 308.09653,1110.951 L 278.8021,1146.3064 L 261.62951,1162.4688 L 248.49753,1179.6414 L 247.48737,1194.7937 L 238.396,1209.946 L 230.31478,1226.1084 L 230.31478,1237.2201 L 235.36554,1243.281 L 242.43661,1238.2303 L 249.50768,1233.1795 L 254.55844,1230.149 L 259.6092,1230.149 L 262.63966,1248.3318 L 266.68027,1258.4333 L 263.64981,1264.4942 L 267.69042,1275.6059 L 271.73103,1275.6059 L 282.84271,1264.4942 L 290.92393,1245.3013 L 305.06607,1227.1186 L 324.25897,1210.9561 L 347.49248,1187.7226 L 362.64476,1177.6211 L 388.90873,1167.5196 L 399.01026,1160.4485 L 412.14224,1150.347 L 421.23361,1145.2962 L 424.26407,1129.1338 L 422.24376,1104.8901 L 421.23361,1078.6261 L 423.25392,1041.2505 L 422.24376,1045.2911 L 428.57143,1015.2193 z"
       id="path2470"
       sodipodi:nodetypes="ccccccccccccccccccccccccccccccccccccccccccccccccccccccccccccccccccccccccccccccccccccccccccccccccccccccccccccccccccccccccccccccccccccccccccccccccccccccccccccccccccccccc" />
    <path
       style="fill:#1a1a1a;fill-rule:evenodd;stroke:none;stroke-width:1px;stroke-linecap:butt;stroke-linejoin:miter;stroke-opacity:1"
       d="M 212.13203,1124.083 L 215.16249,1112.9713 L 223.24371,1100.8495 L 233.34524,1090.748 L 243.44676,1077.616 L 251.52798,1075.5957 L 265.67012,1075.5957 L 278.8021,1075.5957 L 265.67012,1086.7074 L 251.52798,1112.9713 L 247.48737,1124.083 L 245.46707,1130.1439 L 231.32493,1132.1642 L 221.22341,1129.1338 L 212.13203,1124.083 z"
       id="path2472" />
    <path
       style="fill:#1a1a1a;fill-rule:evenodd;stroke:none;stroke-width:1px;stroke-linecap:butt;stroke-linejoin:miter;stroke-opacity:1"
       d="M 167.68532,1085.6972 L 174.75639,1097.819 L 188.89853,1113.9815 L 199.00005,1096.8089 L 216.17264,1076.6058 L 226.27417,1062.4637 L 234.35539,1054.3825 L 244.45692,1050.3419 L 253.54829,1050.3419 L 232.33509,1044.281 L 214.15234,1059.4333 L 202.03051,1064.484 L 185.86807,1068.5246 L 179.80715,1070.5449 L 167.68532,1085.6972 z"
       id="path2474" />
    <path
       style="fill:#d3bc5f;fill-rule:evenodd;stroke:none;stroke-width:1px;stroke-linecap:butt;stroke-linejoin:miter;stroke-opacity:1"
       d="M 340.42141,991.75303 L 352.54324,989.73272 L 368.70568,988.72257 L 374.76659,989.73272 L 378.8072,1007.9155 L 369.71583,1027.1084 L 360.62446,1045.2911 L 348.50263,1063.4739 L 335.37065,1080.6465 L 329.30973,1085.6972 L 315.16759,1092.7683 L 304.05592,1095.7987 L 293.95439,1096.8089 L 284.86302,1106.9104 L 270.72088,1120.0424 L 269.71073,1131.1541 L 255.56859,1140.2455 L 246.47722,1131.1541 L 250.51783,1116.0018 L 258.59905,1099.8394 L 266.68027,1088.7277 L 278.8021,1075.5957 L 256.57875,1074.5855 L 241.42646,1076.6058 L 232.33509,1091.7581 L 218.19295,1106.9104 L 209.10158,1129.1338 L 197.9899,1152.3673 L 191.92898,1162.4688 L 180.81731,1164.4891 L 174.75639,1155.3977 L 182.83761,1131.1541 L 190.91883,1112.9713 L 202.03051,1094.7886 L 214.15234,1079.6363 L 229.30463,1059.4333 L 236.3757,1051.352 L 254.55844,1050.3419 L 236.3757,1044.281 L 230.31478,1044.281 L 219.2031,1055.3926 L 207.08127,1060.4434 L 191.92898,1065.4942 L 182.83761,1069.5348 L 172.73609,1077.616 L 167.68532,1081.6566 L 162.63456,1080.6465 L 159.6041,1073.5754 L 161.62441,1067.5145 L 169.70563,1061.4536 L 185.86807,1054.3825 L 200.0102,1049.3317 L 208.09142,1043.2708 L 217.1828,1036.1997 L 246.47722,1035.1896 L 251.52798,1034.1794 L 261.62951,1039.2302 L 274.76149,1046.3013 L 293.95439,1048.3216 L 304.05592,1049.3317 L 312.13714,1039.2302 L 323.24881,1029.1287 L 329.30973,1017.0068 L 336.3808,1004.885 L 340.42141,999.83425 L 340.42141,991.75303 z"
       id="path2476" />
    <path
       style="fill:#1a1a1a;fill-rule:evenodd;stroke:none;stroke-width:1px;stroke-linecap:butt;stroke-linejoin:miter;stroke-opacity:1"
       d="M 307.08637,1114.9916 L 322.23866,1126.1033 L 333.35034,1134.1845 L 340.42141,1139.2353 L 318.19805,1144.2861 L 297.995,1152.3673 L 275.77164,1166.5094 L 258.59905,1181.6617 L 247.48737,1193.7835 L 246.47722,1180.6516 L 266.68027,1156.4079 L 283.85287,1140.2455 L 296.98485,1125.0932 L 307.08637,1114.9916 z"
       id="path2478" />
    <path
       style="fill:#1a1a1a;fill-rule:evenodd;stroke:none;stroke-width:1px;stroke-linecap:butt;stroke-linejoin:miter;stroke-opacity:1"
       d="M 252.53814,1229.1389 L 263.64981,1216.0069 L 266.68027,1203.8851 L 279.81226,1188.7328 L 312.13714,1170.55 L 339.41126,1164.4891 L 316.17775,1187.7226 L 301.02546,1205.9054 L 284.86302,1223.078 L 273.75134,1245.3013 L 265.67012,1257.4231 L 261.62951,1240.2506 L 259.6092,1230.149 L 252.53814,1229.1389 z"
       id="path2480" />
    <path
       style="fill:#d3bc5f;fill-rule:evenodd;stroke:none;stroke-width:1px;stroke-linecap:butt;stroke-linejoin:miter;stroke-opacity:1"
       d="M 267.69042,1258.4333 L 265.67012,1263.4841 L 269.71073,1273.5856 L 276.7818,1268.5348 L 284.86302,1263.4841 L 288.90363,1247.3216 L 304.05592,1226.1084 L 321.22851,1209.946 L 331.33003,1201.8648 L 353.55339,1182.6719 L 365.67522,1173.5805 L 383.85797,1167.5196 L 398.0001,1157.418 L 409.11178,1150.347 L 423.25392,1143.2759 L 424.26407,1126.1033 L 422.24376,1094.7886 L 421.23361,1079.6363 L 423.25392,1038.22 L 428.30468,1006.9053 L 411.13209,1011.9561 L 395.9798,1018.017 L 389.91888,1019.0271 L 386.88842,1051.352 L 382.84781,1079.6363 L 378.8072,1109.9409 L 369.71583,1119.0323 L 359.61431,1126.1033 L 349.51278,1132.1642 L 335.37065,1119.0323 L 317.1879,1105.9003 L 311.12698,1102.8698 L 309.10668,1112.9713 L 320.21836,1123.0729 L 342.44171,1137.215 L 311.12698,1146.3064 L 282.84271,1161.4587 L 255.56859,1186.7125 L 240.41631,1201.8648 L 233.34524,1219.0374 L 231.32493,1229.1389 L 233.34524,1241.2607 L 241.42646,1238.2303 L 255.56859,1232.1693 L 265.67012,1214.9967 L 270.72088,1200.8546 L 287.89348,1182.6719 L 309.10668,1172.5703 L 330.31988,1165.4993 L 342.44171,1162.4688 L 320.21836,1182.6719 L 303.04576,1206.9155 L 287.89348,1222.0678 L 278.8021,1238.2303 L 267.69042,1258.4333 z"
       id="path2482" />
    <path
       style="fill:#ffffff;fill-rule:evenodd;stroke:none;stroke-width:1px;stroke-linecap:butt;stroke-linejoin:miter;stroke-opacity:1"
       d="M -91.923882,562.4382 L -86.873119,595.77323 L -73.741136,636.17933 L -52.527932,690.72757 L -32.324881,715.98139 L -9.0913729,744.26566 L 10.101525,753.35703 L 31.314729,757.39764 L 54.548237,754.36718 L 78.791899,762.4484 L 105.05586,773.56008 L 165.66502,808.91542 L 226.27417,835.17939 L 307.08637,874.57533 L 346.48232,897.80884 L 407.09148,919.02205 L 434.36559,929.12357 L 474.7717,931.14388 L 432.34529,937.20479 L 408.10163,940.23525 L 407.09148,953.36723 L 412.14224,969.52967 L 413.15239,984.68196 L 410.12193,1010.9459 L 421.23361,1008.9256 L 428.30468,1005.8952 L 432.34529,979.6312 L 441.43666,965.48906 L 457.5991,960.4383 L 479.82246,949.32662 L 503.05597,948.31647 L 508.10673,954.37739 L 502.04582,960.4383 L 482.85292,964.47891 L 467.70063,972.56013 L 452.54834,990.74288 L 433.35544,1012.9662 L 424.26407,1009.9358 L 413.15239,1011.9561 L 399.01026,1012.9662 L 387.89858,1018.017 L 380.82751,1010.9459 L 375.77675,989.73272 L 362.64476,989.73272 L 342.44171,992.76318 L 325.26912,986.70227 L 287.89348,977.61089 L 255.56859,977.61089 L 213.14219,964.47891 L 169.70563,950.33678 L 133.34014,935.18449 L 84.852814,903.86976 L 57.578695,886.69717 L 34.345187,867.50427 L 15.152288,853.36213 L -16.162441,823.05755 L -43.436559,782.65145 L -57.578695,746.28596 L -75.761441,693.75803 L -83.842661,659.41284 L -88.893424,634.15903 L -94.954339,592.74277 L -91.923882,562.4382 z"
       id="path2484" />
    <path
       style="fill:#c5bb92;fill-opacity:1;fill-rule:evenodd;stroke:none;stroke-width:1px;stroke-linecap:butt;stroke-linejoin:miter;stroke-opacity:1"
       d="M 58.588848,754.36718 L 56.568543,734.16413 L 65.659915,719.01184 L 83.842661,699.81894 L 83.842661,725.07276 L 90.913729,719.01184 L 102.02541,704.86971 L 102.02541,723.05245 L 105.05586,731.13367 L 110.10663,707.90016 L 123.23861,692.74788 L 139.40105,676.58544 L 145.46197,690.72757 L 135.36044,704.86971 L 140.4112,703.85955 L 153.54319,683.6565 L 158.59395,669.51437 L 173.74624,645.27071 L 187.88837,626.07781 L 208.09142,625.06766 L 237.38585,604.86461 L 268.70058,614.96613 L 283.85287,627.08796 L 301.02546,631.12857 L 310.11683,629.10827 L 330.31988,651.33162 L 366.68537,678.60574 L 378.8072,676.58544 L 387.89858,680.62605 L 396.98995,672.54483 L 392.94934,671.53467 L 393.95949,661.43315 L 373.75644,649.31132 L 385.87827,647.29101 L 408.10163,649.31132 L 440.42651,659.41284 L 495.9849,688.70727 L 528.30978,711.94077 L 550.53314,731.13367 L 539.42146,740.22505 L 535.38085,746.28596 L 547.50268,758.40779 L 550.53314,766.48901 L 539.42146,770.52962 L 555.5839,784.67176 L 569.72604,803.86466 L 587.90878,845.28091 L 587.90878,859.42305 L 591.94939,870.53472 L 608.11183,892.75808 L 604.07122,901.84945 L 581.84787,898.819 L 564.67527,907.91037 L 556.59405,912.96113 L 545.48237,914.98144 L 531.34024,915.99159 L 561.64482,920.0322 L 564.67527,924.07281 L 534.3707,929.12357 L 521.23871,940.23525 L 511.13719,949.32662 L 506.08643,950.33678 L 498.0052,948.31647 L 476.792,951.34693 L 457.5991,960.4383 L 441.43666,964.47891 L 433.35544,977.61089 L 427.29453,1008.9256 L 413.15239,1012.9662 L 410.12193,1011.9561 L 413.15239,972.56013 L 406.08132,953.36723 L 407.09148,939.2251 L 473.76154,930.13372 L 432.34529,929.12357 L 348.50263,898.819 L 303.04576,871.54488 L 215.16249,830.12862 L 162.63456,806.89511 L 111.11678,776.59054 L 74.751288,759.41794 L 58.588848,754.36718 z"
       id="path2486" />
    <path
       style="fill:#cccccc;fill-rule:evenodd;stroke:none;stroke-width:1px;stroke-linecap:butt;stroke-linejoin:miter;stroke-opacity:1"
       d="M 604.07122,899.82915 L 610.13214,891.74793 L 634.3758,911.95098 L 654.57885,919.02205 L 667.71083,915.99159 L 700.03571,907.91037 L 727.30983,902.85961 L 748.52304,906.90022 L 764.68548,906.90022 L 728.31999,920.0322 L 694.98495,930.13372 L 654.57885,938.21494 L 614.17275,952.35708 L 575.78695,963.46876 L 544.47222,969.52967 L 525.27932,975.59059 L 468.71078,975.59059 L 455.5788,982.66166 L 472.75139,968.51952 L 488.91383,961.44845 L 502.04582,960.4383 L 508.10673,952.35708 L 508.10673,949.32662 L 525.27932,936.19464 L 533.36054,928.11342 L 568.71588,925.08296 L 562.65497,919.02205 L 538.41131,915.99159 L 557.60421,913.97128 L 571.74634,906.90022 L 582.85802,899.82915 L 604.07122,899.82915 z"
       id="path2488" />
    <path
       style="fill:#ffffff;fill-rule:evenodd;stroke:none;stroke-width:1px;stroke-linecap:butt;stroke-linejoin:miter;stroke-opacity:1"
       d="M 11.111678,752.34688 L 4.0406102,731.13367 L 8.0812204,719.01184 L 21.213203,696.78849 L 42.426407,664.46361 L 74.751288,626.07781 L 123.23861,578.60064 L 147.48227,556.37728 L 168.69548,538.19454 L 178.797,535.16408 L 182.83761,543.2453 L 165.66502,571.52957 L 140.4112,606.88491 L 114.14724,628.09811 L 82.832509,665.47376 L 64.649763,703.85955 L 57.578695,730.12352 L 58.588848,741.2352 L 57.578695,757.39764 L 30.304576,758.40779 L 11.111678,752.34688 z"
       id="path2490" />
    <path
       style="fill:#ffffff;fill-rule:evenodd;stroke:none;stroke-width:1px;stroke-linecap:butt;stroke-linejoin:miter;stroke-opacity:1"
       d="M 309.10668,627.08796 L 365.67522,680.62605 L 379.81736,674.56513 L 387.89858,680.62605 L 394.96965,672.54483 L 393.95949,661.43315 L 342.44171,623.04735 L 345.47217,620.01689 L 382.84781,649.31132 L 414.16254,649.31132 L 411.13209,635.16918 L 455.5788,651.33162 L 481.84276,664.46361 L 504.06612,682.64635 L 556.59405,725.07276 L 570.73619,738.20474 L 549.52298,732.14383 L 533.36054,741.2352 L 552.55344,761.43825 L 545.48237,773.56008 L 571.74634,808.91542 L 586.89863,846.29106 L 591.94939,865.48396 L 602.05092,862.4535 L 625.28443,849.32152 L 658.61946,834.16923 L 679.83266,819.01694 L 702.05602,800.8342 L 708.11693,797.80374 L 717.20831,801.84435 L 725.28953,805.88496 L 751.55349,790.73267 L 778.82761,776.59054 L 806.10173,759.41794 L 815.1931,747.29611 L 854.58905,740.22505 L 976.81751,736.18444 L 996.01041,736.18444 L 1012.1729,734.16413 L 1022.2744,725.07276 L 985.90888,718.00169 L 942.47232,706.89001 L 916.20836,706.89001 L 885.90378,699.81894 L 859.63982,701.83925 L 838.42661,696.78849 L 829.33524,695.77833 L 822.26417,697.79864 L 801.05097,718.00169 L 780.84792,731.13367 L 767.71593,740.22505 L 751.55349,763.45855 L 733.37075,785.68191 L 720.23876,800.8342 L 705.08648,795.78344 L 704.07632,786.69206 L 695.9951,784.67176 L 679.83266,802.8545 L 650.53824,824.06771 L 624.27427,840.23015 L 610.13214,851.34183 L 599.02046,848.31137 L 590.93924,816.99664 L 582.85802,793.76313 L 573.76665,780.63115 L 563.66512,772.54993 L 569.72604,766.48901 L 570.73619,760.4281 L 565.68543,747.29611 L 572.75649,734.16413 L 571.74634,723.05245 L 563.66512,701.83925 L 550.53314,688.70727 L 535.38085,679.61589 L 524.26917,676.58544 L 512.14734,675.57528 L 514.16765,670.52452 L 519.21841,664.46361 L 504.06612,653.35193 L 478.81231,645.27071 L 462.64987,634.15903 L 451.53819,629.10827 L 426.28437,620.01689 L 416.18285,619.00674 L 407.09148,623.04735 L 408.10163,628.09811 L 393.95949,623.04735 L 368.70568,617.99659 L 360.62446,613.95598 L 350.52293,616.98644 L 339.41126,621.02705 L 331.33003,620.01689 L 323.24881,622.0372 L 309.10668,627.08796 z"
       id="path2492" />
    <path
       style="fill:#ff8855;fill-opacity:1;fill-rule:evenodd;stroke:none;stroke-width:1px;stroke-linecap:butt;stroke-linejoin:miter;stroke-opacity:1"
       d="M -160.61425,261.41274 L -161.62441,277.57518 L -141.42136,280.60564 L -100.0051,272.52442 L -42.426407,250.30106 L -49.497475,244.24015 L -57.578695,234.13862 L -52.527932,228.07771 L -61.619305,218.98633 L -67.680221,204.8442 L -76.771593,185.6513 L -79.802051,167.46855 L -80.812204,164.4381 L -89.903577,173.52947 L -96.974644,191.71221 L -98.994949,202.82389 L -119.198,223.02694 L -146.47212,249.29091 L -160.61425,261.41274 z"
       id="path2494" />
    <path
       style="fill:#fff555;fill-opacity:1;fill-rule:evenodd;stroke:none;stroke-width:1px;stroke-linecap:butt;stroke-linejoin:miter;stroke-opacity:1"
       d="M -91.923882,171.50916 L -77.781746,142.21474 L -72.730983,135.14367 L -68.690373,144.23504 L -67.680221,166.4584 L -65.659915,193.73252 L -63.63961,213.93557 L -74.751288,205.85435 L -75.761441,190.70206 L -79.802051,167.46855 L -81.822356,164.4381 L -91.923882,171.50916 z"
       id="path2496" />
    <path
       style="fill:#000000;fill-rule:evenodd;stroke:none;stroke-width:1px;stroke-linecap:butt;stroke-linejoin:miter;stroke-opacity:1"
       d="M -140.4112,277.57518 L -116.16754,267.47365 L -87.883271,254.34167 L -62.629458,239.18938 L -56.568543,234.13862 L -45.456865,248.28076 L -43.436559,252.32137 L -71.720831,261.41274 L -110.10663,273.53457 L -140.4112,277.57518 z"
       id="path2498" />
    <path
       style="fill:#ffffff;fill-rule:evenodd;stroke:none;stroke-width:1px;stroke-linecap:butt;stroke-linejoin:miter;stroke-opacity:1"
       d="M -54.548237,233.12847 L -51.51778,227.06755 L -31.314729,241.20969 L -10.101525,246.26045 L -9.0913729,225.04725 L -2.0203051,200.80359 L 3.0304576,186.66145 L 7.0710678,166.4584 L 17.172593,162.41779 L 18.182746,169.48886 L 12.121831,186.66145 L 5.0507627,221.00664 L 7.0710678,250.30106 L 18.182746,264.4432 L 45.456865,277.57518 L 61.619305,282.62594 L 78.791899,278.58533 L 96.974644,270.50411 L 109.09647,260.40259 L 116.16754,258.38228 L 123.23861,266.4635 L 121.21831,278.58533 L 112.12693,290.70716 L 91.923882,303.83915 L 77.781746,308.88991 L 62.629458,312.93052 L 43.436559,308.88991 L 32.324881,303.83915 L 18.182746,297.77823 L 15.152288,294.74777 L 8.0812204,267.47365 L -8.0812204,253.33152 L -38.385797,248.28076 L -40.406102,249.29091 L -54.548237,233.12847 z"
       id="path2500" />
    <path
       style="fill:#ffffff;fill-rule:evenodd;stroke:none;stroke-width:1px;stroke-linecap:butt;stroke-linejoin:miter;stroke-opacity:1"
       d="M 38.385797,139.18428 L 58.588848,157.36703 L 75.761441,177.57008 L 79.802051,183.63099 L 105.05586,198.78328 L 130.30968,222.01679 L 143.44166,236.15893 L 151.52288,253.33152 L 158.59395,286.66655 L 158.59395,302.82899 L 149.50258,312.93052 L 146.47212,317.98128 L 155.56349,317.98128 L 160.61425,309.90006 L 165.66502,349.29601 L 162.63456,383.6412 L 159.6041,412.93562 L 161.62441,414.95593 L 167.68532,405.86455 L 174.75639,372.52952 L 178.797,354.34677 L 181.82746,343.2351 L 181.82746,316.97113 L 176.7767,298.78838 L 182.83761,287.67671 L 191.92898,267.47365 L 195.96959,246.26045 L 196.97975,228.07771 L 193.94929,213.93557 L 183.84776,228.07771 L 179.80715,236.15893 L 175.76654,257.37213 L 172.73609,270.50411 L 161.62441,243.22999 L 147.48227,217.97618 L 127.27922,195.75282 L 115.15739,183.63099 L 98.994949,174.53962 L 84.852814,167.46855 L 77.781746,157.36703 L 61.619305,146.25535 L 51.51778,138.17413 L 38.385797,139.18428 z"
       id="path2502" />
    <path
       style="fill:#ffffff;fill-rule:evenodd;stroke:none;stroke-width:1px;stroke-linecap:butt;stroke-linejoin:miter;stroke-opacity:1"
       d="M -73.741136,136.15382 L -62.629458,111.91016 L -50.507627,94.73757 L -38.385797,83.625892 L -16.162441,79.585281 L -4.0406102,79.585281 L -30.304576,88.676654 L -46.467017,102.81879 L -55.55839,122.01169 L -64.649763,146.25535 L -67.680221,174.53962 L -70.710678,143.22489 L -73.741136,136.15382 z"
       id="path2504" />
    <path
       style="fill:#d6492d;fill-opacity:1;fill-rule:evenodd;stroke:none;stroke-width:1px;stroke-linecap:butt;stroke-linejoin:miter;stroke-opacity:1"
       d="M -30.304576,106.8594 L -38.385797,117.97108 L -43.436559,129.08276 L -41.416254,139.18428 L -33.335034,149.28581 L -19.192898,149.28581 L -6.0609153,145.2452 L 1.0101525,136.15382 L 5.0507627,130.09291 L 3.0304576,119.99138 L -8.0812204,109.88986 L -18.182746,103.82894 L -30.304576,106.8594 z"
       id="path2506" />
    <path
       style="fill:#000000;fill-rule:evenodd;stroke:none;stroke-width:1px;stroke-linecap:butt;stroke-linejoin:miter;stroke-opacity:1"
       d="M -21.213203,118.98123 L -27.274119,124.03199 L -30.304576,127.06245 L -27.274119,136.15382 L -19.192898,137.16398 L -15.152288,134.13352 L -11.111678,127.06245 L -16.162441,121.00154 L -21.213203,118.98123 z"
       id="path2508" />
    <path
       style="fill:#ffffff;fill-rule:evenodd;stroke:none;stroke-width:1px;stroke-linecap:butt;stroke-linejoin:miter;stroke-opacity:1"
       d="M -19.192898,122.01169 L -21.213203,130.09291 L -15.152288,130.09291 L -12.121831,127.06245 L -19.192898,122.01169 z"
       id="path2510" />
    <path
       style="fill:#89624f;fill-opacity:1;fill-rule:evenodd;stroke:none;stroke-width:1px;stroke-linecap:butt;stroke-linejoin:miter;stroke-opacity:1"
       d="M 15.152288,303.83915 L 45.456865,328.08281 L 65.659915,342.22494 L 76.771593,346.26555 L 72.730983,354.34677 L 77.781746,357.37723 L 86.87312,362.42799 L 102.02541,371.51937 L 98.99495,382.63105 L 119.198,404.8544 L 130.30968,412.93562 L 133.34014,426.0676 L 139.40105,436.16913 L 154.55334,448.29096 L 140.4112,460.41279 L 137.38075,466.47371 L 146.47212,472.53462 L 159.6041,478.59554 L 150.51273,493.74783 L 151.52288,497.78844 L 158.59395,508.90011 L 164.65486,513.95088 L 175.76654,516.98133 L 180.81731,522.0321 L 178.797,536.17423 L 169.70563,538.19454 L 141.42136,561.42805 L 117.1777,586.68186 L 87.88327,610.92552 L 64.649763,640.21994 L 38.385797,670.52452 L 18.182746,701.83925 L 4.04061,730.12352 L 13.131983,755.37733 L -9.091373,743.2555 L -35.355339,712.95093 L -54.548237,687.69711 L -68.690373,647.29101 L -83.84266,605.87476 L -91.92388,562.4382 L -90.91373,549.30622 L -85.86297,508.90011 L -68.690373,456.37218 L -42.426407,404.8544 L -21.213203,366.4686 L -2.020305,329.09296 L 15.152288,303.83915 z"
       id="path2512" />
    <path
       style="fill:#ffffff;fill-rule:evenodd;stroke:none;stroke-width:1px;stroke-linecap:butt;stroke-linejoin:miter;stroke-opacity:1"
       d="M -158.59395,260.40259 L -158.59395,271.51427 L -141.42136,266.4635 L -118.18785,253.33152 L -104.04571,241.20969 L -95.964492,230.09801 L -92.934034,213.93557 L -94.954339,206.8645 L -109.09647,215.95588 L -125.25892,232.11832 L -144.45181,247.2706 L -158.59395,260.40259 z"
       id="path2514" />
  </g>
</svg>
