<?xml version="1.0" encoding="UTF-8" standalone="no"?>
<svg width="400" height="400" xmlns="http://www.w3.org/2000/svg" preserveAspectRatio="xMidYMid">
 <g>
  <title>Layer 1</title>
  <g id="svg_27">
   <rect fill="#424463" stroke="#000000" stroke-width="5" width="400" height="400" id="svg_26"/>
   <path d="m265.18011,228.16994l0,-63.36548l-54.64255,31.73503l54.64255,31.63045" fill="#FFFFFF" id="svg_2"/>
   <path d="m261.64493,158.6216l-54.73819,-31.65137l0,63.37843l54.73819,-31.72708" fill="#00AEDE" id="svg_3"/>
   <path d="m199.79253,190.34668l0,-63.37843l-54.77702,31.65138l54.77702,31.72707" fill="#00AEDE" id="svg_4"/>
   <path d="m196.25235,120.88699l-54.72522,-31.83464l0,63.47206l54.72522,-31.63741" fill="#00AEDE" id="svg_5"/>
   <path d="m261.64493,234.25914l-54.73819,-31.62347l0,63.36848l54.73819,-31.74501" fill="#FFFFFF" id="svg_6"/>
   <path d="m199.79253,266.00513l0,-63.37143l-54.77702,31.62746l54.77702,31.74397" fill="#FFFFFF" id="svg_7"/>
   <path d="m327.11319,196.53848l-54.81787,-31.73103l0,63.36148l54.81787,-31.63045" fill="#00AEDE" id="svg_8"/>
   <path d="m134.39896,152.52441l0,-63.47206l-55.13559,31.83464l55.13559,31.63739" fill="#00AEDE" id="svg_9"/>
   <path d="m196.25235,272.09534l-54.72522,-31.72008l0,63.45116l54.72522,-31.73108" fill="#FFFFFF" id="svg_10"/>
   <path d="m134.39896,303.82739l0,-63.45015l-55.13559,31.72011l55.13559,31.73004" fill="#00AEDE" id="svg_11"/>
   <path d="m196.25235,196.53848l-54.72522,-31.73103l0,63.36148l54.72522,-31.63045" fill="#FFFFFF" id="svg_12"/>
   <path d="m265.18011,152.52441l0,-63.47206l-54.64255,31.83464l54.64255,31.63739" fill="#00AEDE" id="svg_13"/>
   <path d="m206.90874,51.31876l0,63.35751l54.73817,-31.72009l-54.73817,-31.63742" fill="#FFFFFF" id="svg_14"/>
   <path d="m145.0145,82.95618l54.77704,31.72009l0,-63.35751l-54.77704,31.63742" fill="#FFFFFF" id="svg_15"/>
   <path d="m261.64493,309.91064l-54.73819,-31.61652l0,63.34756l54.73819,-31.73105" fill="#FFFFFF" id="svg_16"/>
   <path d="m199.79253,341.64368l0,-63.35153l-54.77702,31.62048l54.77702,31.73105" fill="#FFFFFF" id="svg_17"/>
   <path d="m330.66034,266.00513l0,-63.37143l-54.67645,31.62746l54.67645,31.74397" fill="#00AEDE" id="svg_18"/>
   <path d="m134.39896,228.16994l0,-63.4651l-55.13559,31.83467l55.13559,31.63045" fill="#00AEDE" id="svg_19"/>
   <path d="m130.87177,234.25914l-55.21532,-31.62347l0,63.36848l55.21532,-31.74501" fill="#00AEDE" id="svg_20"/>
   <path d="m330.66034,190.34668l0,-63.37843l-54.67645,31.65138l54.67645,31.72707" fill="#00AEDE" id="svg_21"/>
   <path d="m327.11319,120.88699l-54.81787,-31.83464l0,63.47206l54.81787,-31.63741" fill="#00AEDE" id="svg_22"/>
   <path d="m327.11319,272.09534l-54.81787,-31.72008l0,63.45116l54.81787,-31.73108" fill="#00AEDE" id="svg_23"/>
   <path d="m265.18011,303.82739l0,-63.45015l-54.64255,31.72011l54.64255,31.73004" fill="#FFFFFF" id="svg_24"/>
   <path d="m130.87177,158.6216l-55.21532,-31.65137l0,63.37843l55.21532,-31.72708" fill="#00AEDE" id="svg_25"/>
  </g>
 </g>
</svg>
